G04 #@! TF.FileFunction,Copper,L2,Bot,Signal*
%FSLAX46Y46*%
G04 Gerber Fmt 4.6, Leading zero omitted, Abs format (unit mm)*
G04 Created by KiCad (PCBNEW 4.0.6) date 2017 October 24, Tuesday 22:14:54*
%MOMM*%
%LPD*%
G01*
G04 APERTURE LIST*
%ADD10C,0.100000*%
%ADD11R,1.500000X1.300000*%
%ADD12R,1.300000X1.700000*%
%ADD13C,1.524000*%
%ADD14R,1.800000X1.800000*%
%ADD15C,1.800000*%
%ADD16R,1.700000X1.700000*%
%ADD17O,1.700000X1.700000*%
%ADD18R,1.300000X1.300000*%
%ADD19R,2.000000X1.300000*%
%ADD20C,0.685800*%
%ADD21C,0.254000*%
%ADD22C,0.152400*%
%ADD23C,0.508000*%
%ADD24C,1.000000*%
G04 APERTURE END LIST*
D10*
D11*
X160650000Y-105000000D03*
X163350000Y-105000000D03*
D12*
X167414000Y-103124000D03*
X170914000Y-103124000D03*
D13*
X157353000Y-100457000D03*
X157353000Y-102997000D03*
X164973000Y-100457000D03*
X164973000Y-102997000D03*
D11*
X155139400Y-97459800D03*
X157839400Y-97459800D03*
X166061400Y-97624900D03*
X168761400Y-97624900D03*
D14*
X158623000Y-95123000D03*
D15*
X161163000Y-95123000D03*
D14*
X163703000Y-95123000D03*
D15*
X166243000Y-95123000D03*
D14*
X168783000Y-95123000D03*
D15*
X171323000Y-95123000D03*
D14*
X153543000Y-95123000D03*
D15*
X156083000Y-95123000D03*
D16*
X154051000Y-105892600D03*
D17*
X156591000Y-105892600D03*
D16*
X154432000Y-102870000D03*
D17*
X154432000Y-100330000D03*
D18*
X162440000Y-97709400D03*
D19*
X161290000Y-103209400D03*
D18*
X160140000Y-97709400D03*
D20*
X161036000Y-101219000D03*
X161036000Y-99314000D03*
X166497000Y-105791000D03*
D21*
X153543000Y-95123000D02*
X153543000Y-96139000D01*
X153416000Y-102870000D02*
X154432000Y-102870000D01*
X152654000Y-102108000D02*
X153416000Y-102870000D01*
X152654000Y-97028000D02*
X152654000Y-102108000D01*
X153543000Y-96139000D02*
X152654000Y-97028000D01*
X154432000Y-102870000D02*
X154051000Y-103251000D01*
X154051000Y-103251000D02*
X154051000Y-105892600D01*
D22*
X170091100Y-103327200D02*
X170091100Y-104381300D01*
X169472400Y-105000000D02*
X163350000Y-105000000D01*
X170091100Y-104381300D02*
X169472400Y-105000000D01*
X168783000Y-95123000D02*
X168783000Y-96469200D01*
X168783000Y-96469200D02*
X168706800Y-96393000D01*
X170091100Y-103327200D02*
X170914000Y-103124000D01*
X168783000Y-95123000D02*
X168783000Y-97603300D01*
X168783000Y-97603300D02*
X168761400Y-97624900D01*
X168783000Y-95123000D02*
X168783000Y-95415100D01*
D21*
X161290000Y-101473000D02*
X161290000Y-103209400D01*
X161036000Y-101219000D02*
X161290000Y-101473000D01*
X160140000Y-97709400D02*
X160140000Y-98418000D01*
X160140000Y-98418000D02*
X161036000Y-99314000D01*
D23*
X161057600Y-105283000D02*
X161057600Y-103441800D01*
D22*
X161057600Y-103441800D02*
X161290000Y-103209400D01*
D23*
X167693400Y-103047800D02*
X164973000Y-102997000D01*
D22*
X164973000Y-102997000D02*
X164846000Y-103124000D01*
D21*
X157839400Y-97459800D02*
X157839400Y-98276400D01*
X162433000Y-99695000D02*
X162440000Y-97709400D01*
X161925000Y-100330000D02*
X162433000Y-99695000D01*
X159639000Y-100330000D02*
X161925000Y-100330000D01*
X157839400Y-98276400D02*
X159639000Y-100330000D01*
X162440000Y-97709400D02*
X162440000Y-97162000D01*
D22*
X162440000Y-97709400D02*
X162440000Y-98227500D01*
D21*
X166061400Y-97624900D02*
X165823900Y-97624900D01*
X165823900Y-97624900D02*
X164719000Y-96520000D01*
X164719000Y-96520000D02*
X160401000Y-96520000D01*
X160401000Y-96520000D02*
X159258000Y-96520000D01*
X159258000Y-96520000D02*
X158623000Y-95885000D01*
X158623000Y-95885000D02*
X158623000Y-95123000D01*
D22*
X158623000Y-96012000D02*
X158623000Y-95123000D01*
D21*
X166497000Y-105791000D02*
X166497000Y-106934000D01*
X166497000Y-106934000D02*
X172085000Y-106934000D01*
X172085000Y-106934000D02*
X172339000Y-106680000D01*
X172339000Y-106680000D02*
X172339000Y-96647000D01*
X172339000Y-96647000D02*
X171323000Y-95631000D01*
D22*
X171323000Y-95631000D02*
X171323000Y-95123000D01*
D23*
X155139400Y-97459800D02*
X155139400Y-98751400D01*
X155139400Y-98751400D02*
X154432000Y-99458800D01*
X154432000Y-99458800D02*
X154432000Y-100330000D01*
D22*
X154051000Y-99695000D02*
X154051000Y-99504500D01*
D24*
X157353000Y-100076000D02*
X157353000Y-100457000D01*
D21*
G36*
X153670000Y-94996000D02*
X153690000Y-94996000D01*
X153690000Y-95250000D01*
X153670000Y-95250000D01*
X153670000Y-96499250D01*
X153782139Y-96611389D01*
X153741960Y-96809800D01*
X153741960Y-98109800D01*
X153786238Y-98345117D01*
X153925310Y-98561241D01*
X154012648Y-98620916D01*
X153803382Y-98830182D01*
X153793848Y-98844451D01*
X153778836Y-98847437D01*
X153548106Y-99001606D01*
X153393937Y-99232336D01*
X153389313Y-99255585D01*
X153352853Y-99279946D01*
X153030946Y-99761715D01*
X152917907Y-100330000D01*
X153030946Y-100898285D01*
X153352853Y-101380054D01*
X153396777Y-101409403D01*
X153222302Y-101481673D01*
X153043673Y-101660301D01*
X152947000Y-101893690D01*
X152947000Y-102584250D01*
X153105750Y-102743000D01*
X154305000Y-102743000D01*
X154305000Y-102723000D01*
X154559000Y-102723000D01*
X154559000Y-102743000D01*
X155758250Y-102743000D01*
X155917000Y-102584250D01*
X155917000Y-101893690D01*
X155820327Y-101660301D01*
X155641698Y-101481673D01*
X155467223Y-101409403D01*
X155511147Y-101380054D01*
X155833054Y-100898285D01*
X155946093Y-100330000D01*
X155833054Y-99761715D01*
X155654118Y-99493918D01*
X155768018Y-99380018D01*
X155960730Y-99091605D01*
X156028400Y-98751400D01*
X156028400Y-98731085D01*
X156124717Y-98712962D01*
X156340841Y-98573890D01*
X156485831Y-98361690D01*
X156488481Y-98348603D01*
X156625310Y-98561241D01*
X156837510Y-98706231D01*
X157089400Y-98757240D01*
X157253984Y-98757240D01*
X157266310Y-98778607D01*
X157420359Y-98954399D01*
X157353000Y-98941000D01*
X156918654Y-99027397D01*
X156550434Y-99273434D01*
X156528767Y-99305861D01*
X156169371Y-99664630D01*
X155956243Y-100177900D01*
X155955758Y-100733661D01*
X156167990Y-101247303D01*
X156560630Y-101640629D01*
X156768512Y-101726949D01*
X156562697Y-101811990D01*
X156169371Y-102204630D01*
X155956243Y-102717900D01*
X155955758Y-103273661D01*
X156167990Y-103787303D01*
X156560630Y-104180629D01*
X157073900Y-104393757D01*
X157629661Y-104394242D01*
X158143303Y-104182010D01*
X158536629Y-103789370D01*
X158749757Y-103276100D01*
X158750242Y-102720339D01*
X158538010Y-102206697D01*
X158145370Y-101813371D01*
X157937488Y-101727051D01*
X158143303Y-101642010D01*
X158536629Y-101249370D01*
X158749757Y-100736100D01*
X158749988Y-100471695D01*
X159065910Y-100832207D01*
X159086067Y-100847686D01*
X159100185Y-100868815D01*
X159203329Y-100937734D01*
X159301721Y-101013291D01*
X159326265Y-101019877D01*
X159347395Y-101033996D01*
X159469069Y-101058199D01*
X159588878Y-101090349D01*
X159614073Y-101087042D01*
X159639000Y-101092000D01*
X160058210Y-101092000D01*
X160057931Y-101412663D01*
X160206493Y-101772212D01*
X160345997Y-101911960D01*
X160290000Y-101911960D01*
X160054683Y-101956238D01*
X159838559Y-102095310D01*
X159693569Y-102307510D01*
X159642560Y-102559400D01*
X159642560Y-103761074D01*
X159448559Y-103885910D01*
X159303569Y-104098110D01*
X159252560Y-104350000D01*
X159252560Y-105650000D01*
X159296838Y-105885317D01*
X159435910Y-106101441D01*
X159648110Y-106246431D01*
X159900000Y-106297440D01*
X161400000Y-106297440D01*
X161635317Y-106253162D01*
X161851441Y-106114090D01*
X161996431Y-105901890D01*
X162003191Y-105868510D01*
X162061673Y-106009699D01*
X162240302Y-106188327D01*
X162473691Y-106285000D01*
X163064250Y-106285000D01*
X163223000Y-106126250D01*
X163223000Y-105127000D01*
X163477000Y-105127000D01*
X163477000Y-106126250D01*
X163635750Y-106285000D01*
X164226309Y-106285000D01*
X164459698Y-106188327D01*
X164638327Y-106009699D01*
X164735000Y-105776310D01*
X164735000Y-105285750D01*
X164576250Y-105127000D01*
X163477000Y-105127000D01*
X163223000Y-105127000D01*
X163203000Y-105127000D01*
X163203000Y-104873000D01*
X163223000Y-104873000D01*
X163223000Y-103873750D01*
X163477000Y-103873750D01*
X163477000Y-104873000D01*
X164576250Y-104873000D01*
X164735000Y-104714250D01*
X164735000Y-104393793D01*
X165249661Y-104394242D01*
X165763303Y-104182010D01*
X166039721Y-103906075D01*
X166116560Y-103907509D01*
X166116560Y-103974000D01*
X166160838Y-104209317D01*
X166299910Y-104425441D01*
X166512110Y-104570431D01*
X166764000Y-104621440D01*
X168064000Y-104621440D01*
X168299317Y-104577162D01*
X168515441Y-104438090D01*
X168660431Y-104225890D01*
X168711440Y-103974000D01*
X168711440Y-103409750D01*
X169629000Y-103409750D01*
X169629000Y-104100310D01*
X169725673Y-104333699D01*
X169904302Y-104512327D01*
X170137691Y-104609000D01*
X170628250Y-104609000D01*
X170787000Y-104450250D01*
X170787000Y-103251000D01*
X169787750Y-103251000D01*
X169629000Y-103409750D01*
X168711440Y-103409750D01*
X168711440Y-102274000D01*
X168687674Y-102147690D01*
X169629000Y-102147690D01*
X169629000Y-102838250D01*
X169787750Y-102997000D01*
X170787000Y-102997000D01*
X170787000Y-101797750D01*
X170628250Y-101639000D01*
X170137691Y-101639000D01*
X169904302Y-101735673D01*
X169725673Y-101914301D01*
X169629000Y-102147690D01*
X168687674Y-102147690D01*
X168667162Y-102038683D01*
X168528090Y-101822559D01*
X168315890Y-101677569D01*
X168064000Y-101626560D01*
X166764000Y-101626560D01*
X166528683Y-101670838D01*
X166312559Y-101809910D01*
X166167569Y-102022110D01*
X166145772Y-102129745D01*
X166079966Y-102128516D01*
X165765370Y-101813371D01*
X165557488Y-101727051D01*
X165763303Y-101642010D01*
X166156629Y-101249370D01*
X166369757Y-100736100D01*
X166370242Y-100180339D01*
X166158010Y-99666697D01*
X165765370Y-99273371D01*
X165252100Y-99060243D01*
X164696339Y-99059758D01*
X164182697Y-99271990D01*
X163789371Y-99664630D01*
X163576243Y-100177900D01*
X163575758Y-100733661D01*
X163787990Y-101247303D01*
X164180630Y-101640629D01*
X164388512Y-101726949D01*
X164182697Y-101811990D01*
X163789371Y-102204630D01*
X163576243Y-102717900D01*
X163575758Y-103273661D01*
X163758115Y-103715000D01*
X163635750Y-103715000D01*
X163477000Y-103873750D01*
X163223000Y-103873750D01*
X163064250Y-103715000D01*
X162937440Y-103715000D01*
X162937440Y-102559400D01*
X162893162Y-102324083D01*
X162754090Y-102107959D01*
X162541890Y-101962969D01*
X162290000Y-101911960D01*
X162052000Y-101911960D01*
X162052000Y-101473000D01*
X162013846Y-101281188D01*
X162014016Y-101085796D01*
X162111398Y-101054923D01*
X162216605Y-101033996D01*
X162251994Y-101010350D01*
X162292564Y-100997488D01*
X162374628Y-100928408D01*
X162463815Y-100868815D01*
X162487460Y-100833428D01*
X162520022Y-100806018D01*
X163028022Y-100171017D01*
X163076793Y-100076968D01*
X163135964Y-99989085D01*
X163144681Y-99946053D01*
X163164893Y-99907077D01*
X163173960Y-99801521D01*
X163194995Y-99697686D01*
X163197502Y-98986612D01*
X163325317Y-98962562D01*
X163541441Y-98823490D01*
X163686431Y-98611290D01*
X163737440Y-98359400D01*
X163737440Y-97282000D01*
X164403370Y-97282000D01*
X164663960Y-97542590D01*
X164663960Y-98274900D01*
X164708238Y-98510217D01*
X164847310Y-98726341D01*
X165059510Y-98871331D01*
X165311400Y-98922340D01*
X166811400Y-98922340D01*
X167046717Y-98878062D01*
X167262841Y-98738990D01*
X167407831Y-98526790D01*
X167414591Y-98493410D01*
X167473073Y-98634599D01*
X167651702Y-98813227D01*
X167885091Y-98909900D01*
X168475650Y-98909900D01*
X168634400Y-98751150D01*
X168634400Y-97751900D01*
X168888400Y-97751900D01*
X168888400Y-98751150D01*
X169047150Y-98909900D01*
X169637709Y-98909900D01*
X169871098Y-98813227D01*
X170049727Y-98634599D01*
X170146400Y-98401210D01*
X170146400Y-97910650D01*
X169987650Y-97751900D01*
X168888400Y-97751900D01*
X168634400Y-97751900D01*
X168614400Y-97751900D01*
X168614400Y-97497900D01*
X168634400Y-97497900D01*
X168634400Y-96520850D01*
X168656000Y-96499250D01*
X168656000Y-95250000D01*
X168636000Y-95250000D01*
X168636000Y-94996000D01*
X168656000Y-94996000D01*
X168656000Y-94976000D01*
X168910000Y-94976000D01*
X168910000Y-94996000D01*
X168930000Y-94996000D01*
X168930000Y-95250000D01*
X168910000Y-95250000D01*
X168910000Y-96477050D01*
X168888400Y-96498650D01*
X168888400Y-97497900D01*
X169987650Y-97497900D01*
X170146400Y-97339150D01*
X170146400Y-96848590D01*
X170049727Y-96615201D01*
X170009573Y-96575048D01*
X170042698Y-96561327D01*
X170221327Y-96382699D01*
X170277119Y-96248006D01*
X170452357Y-96423551D01*
X171016330Y-96657733D01*
X171272326Y-96657956D01*
X171577000Y-96962630D01*
X171577000Y-101639000D01*
X171199750Y-101639000D01*
X171041000Y-101797750D01*
X171041000Y-102997000D01*
X171061000Y-102997000D01*
X171061000Y-103251000D01*
X171041000Y-103251000D01*
X171041000Y-104450250D01*
X171199750Y-104609000D01*
X171577000Y-104609000D01*
X171577000Y-106172000D01*
X167397650Y-106172000D01*
X167474730Y-105986370D01*
X167475069Y-105597337D01*
X167326507Y-105237788D01*
X167051659Y-104962460D01*
X166692370Y-104813270D01*
X166303337Y-104812931D01*
X165943788Y-104961493D01*
X165668460Y-105236341D01*
X165519270Y-105595630D01*
X165518931Y-105984663D01*
X165667493Y-106344212D01*
X165735000Y-106411837D01*
X165735000Y-106934000D01*
X165770605Y-107113000D01*
X157429653Y-107113000D01*
X157641054Y-106971747D01*
X157962961Y-106489978D01*
X158076000Y-105921693D01*
X158076000Y-105863507D01*
X157962961Y-105295222D01*
X157641054Y-104813453D01*
X157159285Y-104491546D01*
X156591000Y-104378507D01*
X156022715Y-104491546D01*
X155540946Y-104813453D01*
X155511597Y-104857377D01*
X155439327Y-104682902D01*
X155260699Y-104504273D01*
X155027310Y-104407600D01*
X154336750Y-104407600D01*
X154178000Y-104566350D01*
X154178000Y-105765600D01*
X154198000Y-105765600D01*
X154198000Y-106019600D01*
X154178000Y-106019600D01*
X154178000Y-106039600D01*
X153924000Y-106039600D01*
X153924000Y-106019600D01*
X153904000Y-106019600D01*
X153904000Y-105765600D01*
X153924000Y-105765600D01*
X153924000Y-104566350D01*
X153765250Y-104407600D01*
X153074690Y-104407600D01*
X152841301Y-104504273D01*
X152729000Y-104616575D01*
X152729000Y-103155750D01*
X152947000Y-103155750D01*
X152947000Y-103846310D01*
X153043673Y-104079699D01*
X153222302Y-104258327D01*
X153455691Y-104355000D01*
X154146250Y-104355000D01*
X154305000Y-104196250D01*
X154305000Y-102997000D01*
X154559000Y-102997000D01*
X154559000Y-104196250D01*
X154717750Y-104355000D01*
X155408309Y-104355000D01*
X155641698Y-104258327D01*
X155820327Y-104079699D01*
X155917000Y-103846310D01*
X155917000Y-103155750D01*
X155758250Y-102997000D01*
X154559000Y-102997000D01*
X154305000Y-102997000D01*
X153105750Y-102997000D01*
X152947000Y-103155750D01*
X152729000Y-103155750D01*
X152729000Y-96658000D01*
X153257250Y-96658000D01*
X153416000Y-96499250D01*
X153416000Y-95250000D01*
X153396000Y-95250000D01*
X153396000Y-94996000D01*
X153416000Y-94996000D01*
X153416000Y-94976000D01*
X153670000Y-94976000D01*
X153670000Y-94996000D01*
X153670000Y-94996000D01*
G37*
X153670000Y-94996000D02*
X153690000Y-94996000D01*
X153690000Y-95250000D01*
X153670000Y-95250000D01*
X153670000Y-96499250D01*
X153782139Y-96611389D01*
X153741960Y-96809800D01*
X153741960Y-98109800D01*
X153786238Y-98345117D01*
X153925310Y-98561241D01*
X154012648Y-98620916D01*
X153803382Y-98830182D01*
X153793848Y-98844451D01*
X153778836Y-98847437D01*
X153548106Y-99001606D01*
X153393937Y-99232336D01*
X153389313Y-99255585D01*
X153352853Y-99279946D01*
X153030946Y-99761715D01*
X152917907Y-100330000D01*
X153030946Y-100898285D01*
X153352853Y-101380054D01*
X153396777Y-101409403D01*
X153222302Y-101481673D01*
X153043673Y-101660301D01*
X152947000Y-101893690D01*
X152947000Y-102584250D01*
X153105750Y-102743000D01*
X154305000Y-102743000D01*
X154305000Y-102723000D01*
X154559000Y-102723000D01*
X154559000Y-102743000D01*
X155758250Y-102743000D01*
X155917000Y-102584250D01*
X155917000Y-101893690D01*
X155820327Y-101660301D01*
X155641698Y-101481673D01*
X155467223Y-101409403D01*
X155511147Y-101380054D01*
X155833054Y-100898285D01*
X155946093Y-100330000D01*
X155833054Y-99761715D01*
X155654118Y-99493918D01*
X155768018Y-99380018D01*
X155960730Y-99091605D01*
X156028400Y-98751400D01*
X156028400Y-98731085D01*
X156124717Y-98712962D01*
X156340841Y-98573890D01*
X156485831Y-98361690D01*
X156488481Y-98348603D01*
X156625310Y-98561241D01*
X156837510Y-98706231D01*
X157089400Y-98757240D01*
X157253984Y-98757240D01*
X157266310Y-98778607D01*
X157420359Y-98954399D01*
X157353000Y-98941000D01*
X156918654Y-99027397D01*
X156550434Y-99273434D01*
X156528767Y-99305861D01*
X156169371Y-99664630D01*
X155956243Y-100177900D01*
X155955758Y-100733661D01*
X156167990Y-101247303D01*
X156560630Y-101640629D01*
X156768512Y-101726949D01*
X156562697Y-101811990D01*
X156169371Y-102204630D01*
X155956243Y-102717900D01*
X155955758Y-103273661D01*
X156167990Y-103787303D01*
X156560630Y-104180629D01*
X157073900Y-104393757D01*
X157629661Y-104394242D01*
X158143303Y-104182010D01*
X158536629Y-103789370D01*
X158749757Y-103276100D01*
X158750242Y-102720339D01*
X158538010Y-102206697D01*
X158145370Y-101813371D01*
X157937488Y-101727051D01*
X158143303Y-101642010D01*
X158536629Y-101249370D01*
X158749757Y-100736100D01*
X158749988Y-100471695D01*
X159065910Y-100832207D01*
X159086067Y-100847686D01*
X159100185Y-100868815D01*
X159203329Y-100937734D01*
X159301721Y-101013291D01*
X159326265Y-101019877D01*
X159347395Y-101033996D01*
X159469069Y-101058199D01*
X159588878Y-101090349D01*
X159614073Y-101087042D01*
X159639000Y-101092000D01*
X160058210Y-101092000D01*
X160057931Y-101412663D01*
X160206493Y-101772212D01*
X160345997Y-101911960D01*
X160290000Y-101911960D01*
X160054683Y-101956238D01*
X159838559Y-102095310D01*
X159693569Y-102307510D01*
X159642560Y-102559400D01*
X159642560Y-103761074D01*
X159448559Y-103885910D01*
X159303569Y-104098110D01*
X159252560Y-104350000D01*
X159252560Y-105650000D01*
X159296838Y-105885317D01*
X159435910Y-106101441D01*
X159648110Y-106246431D01*
X159900000Y-106297440D01*
X161400000Y-106297440D01*
X161635317Y-106253162D01*
X161851441Y-106114090D01*
X161996431Y-105901890D01*
X162003191Y-105868510D01*
X162061673Y-106009699D01*
X162240302Y-106188327D01*
X162473691Y-106285000D01*
X163064250Y-106285000D01*
X163223000Y-106126250D01*
X163223000Y-105127000D01*
X163477000Y-105127000D01*
X163477000Y-106126250D01*
X163635750Y-106285000D01*
X164226309Y-106285000D01*
X164459698Y-106188327D01*
X164638327Y-106009699D01*
X164735000Y-105776310D01*
X164735000Y-105285750D01*
X164576250Y-105127000D01*
X163477000Y-105127000D01*
X163223000Y-105127000D01*
X163203000Y-105127000D01*
X163203000Y-104873000D01*
X163223000Y-104873000D01*
X163223000Y-103873750D01*
X163477000Y-103873750D01*
X163477000Y-104873000D01*
X164576250Y-104873000D01*
X164735000Y-104714250D01*
X164735000Y-104393793D01*
X165249661Y-104394242D01*
X165763303Y-104182010D01*
X166039721Y-103906075D01*
X166116560Y-103907509D01*
X166116560Y-103974000D01*
X166160838Y-104209317D01*
X166299910Y-104425441D01*
X166512110Y-104570431D01*
X166764000Y-104621440D01*
X168064000Y-104621440D01*
X168299317Y-104577162D01*
X168515441Y-104438090D01*
X168660431Y-104225890D01*
X168711440Y-103974000D01*
X168711440Y-103409750D01*
X169629000Y-103409750D01*
X169629000Y-104100310D01*
X169725673Y-104333699D01*
X169904302Y-104512327D01*
X170137691Y-104609000D01*
X170628250Y-104609000D01*
X170787000Y-104450250D01*
X170787000Y-103251000D01*
X169787750Y-103251000D01*
X169629000Y-103409750D01*
X168711440Y-103409750D01*
X168711440Y-102274000D01*
X168687674Y-102147690D01*
X169629000Y-102147690D01*
X169629000Y-102838250D01*
X169787750Y-102997000D01*
X170787000Y-102997000D01*
X170787000Y-101797750D01*
X170628250Y-101639000D01*
X170137691Y-101639000D01*
X169904302Y-101735673D01*
X169725673Y-101914301D01*
X169629000Y-102147690D01*
X168687674Y-102147690D01*
X168667162Y-102038683D01*
X168528090Y-101822559D01*
X168315890Y-101677569D01*
X168064000Y-101626560D01*
X166764000Y-101626560D01*
X166528683Y-101670838D01*
X166312559Y-101809910D01*
X166167569Y-102022110D01*
X166145772Y-102129745D01*
X166079966Y-102128516D01*
X165765370Y-101813371D01*
X165557488Y-101727051D01*
X165763303Y-101642010D01*
X166156629Y-101249370D01*
X166369757Y-100736100D01*
X166370242Y-100180339D01*
X166158010Y-99666697D01*
X165765370Y-99273371D01*
X165252100Y-99060243D01*
X164696339Y-99059758D01*
X164182697Y-99271990D01*
X163789371Y-99664630D01*
X163576243Y-100177900D01*
X163575758Y-100733661D01*
X163787990Y-101247303D01*
X164180630Y-101640629D01*
X164388512Y-101726949D01*
X164182697Y-101811990D01*
X163789371Y-102204630D01*
X163576243Y-102717900D01*
X163575758Y-103273661D01*
X163758115Y-103715000D01*
X163635750Y-103715000D01*
X163477000Y-103873750D01*
X163223000Y-103873750D01*
X163064250Y-103715000D01*
X162937440Y-103715000D01*
X162937440Y-102559400D01*
X162893162Y-102324083D01*
X162754090Y-102107959D01*
X162541890Y-101962969D01*
X162290000Y-101911960D01*
X162052000Y-101911960D01*
X162052000Y-101473000D01*
X162013846Y-101281188D01*
X162014016Y-101085796D01*
X162111398Y-101054923D01*
X162216605Y-101033996D01*
X162251994Y-101010350D01*
X162292564Y-100997488D01*
X162374628Y-100928408D01*
X162463815Y-100868815D01*
X162487460Y-100833428D01*
X162520022Y-100806018D01*
X163028022Y-100171017D01*
X163076793Y-100076968D01*
X163135964Y-99989085D01*
X163144681Y-99946053D01*
X163164893Y-99907077D01*
X163173960Y-99801521D01*
X163194995Y-99697686D01*
X163197502Y-98986612D01*
X163325317Y-98962562D01*
X163541441Y-98823490D01*
X163686431Y-98611290D01*
X163737440Y-98359400D01*
X163737440Y-97282000D01*
X164403370Y-97282000D01*
X164663960Y-97542590D01*
X164663960Y-98274900D01*
X164708238Y-98510217D01*
X164847310Y-98726341D01*
X165059510Y-98871331D01*
X165311400Y-98922340D01*
X166811400Y-98922340D01*
X167046717Y-98878062D01*
X167262841Y-98738990D01*
X167407831Y-98526790D01*
X167414591Y-98493410D01*
X167473073Y-98634599D01*
X167651702Y-98813227D01*
X167885091Y-98909900D01*
X168475650Y-98909900D01*
X168634400Y-98751150D01*
X168634400Y-97751900D01*
X168888400Y-97751900D01*
X168888400Y-98751150D01*
X169047150Y-98909900D01*
X169637709Y-98909900D01*
X169871098Y-98813227D01*
X170049727Y-98634599D01*
X170146400Y-98401210D01*
X170146400Y-97910650D01*
X169987650Y-97751900D01*
X168888400Y-97751900D01*
X168634400Y-97751900D01*
X168614400Y-97751900D01*
X168614400Y-97497900D01*
X168634400Y-97497900D01*
X168634400Y-96520850D01*
X168656000Y-96499250D01*
X168656000Y-95250000D01*
X168636000Y-95250000D01*
X168636000Y-94996000D01*
X168656000Y-94996000D01*
X168656000Y-94976000D01*
X168910000Y-94976000D01*
X168910000Y-94996000D01*
X168930000Y-94996000D01*
X168930000Y-95250000D01*
X168910000Y-95250000D01*
X168910000Y-96477050D01*
X168888400Y-96498650D01*
X168888400Y-97497900D01*
X169987650Y-97497900D01*
X170146400Y-97339150D01*
X170146400Y-96848590D01*
X170049727Y-96615201D01*
X170009573Y-96575048D01*
X170042698Y-96561327D01*
X170221327Y-96382699D01*
X170277119Y-96248006D01*
X170452357Y-96423551D01*
X171016330Y-96657733D01*
X171272326Y-96657956D01*
X171577000Y-96962630D01*
X171577000Y-101639000D01*
X171199750Y-101639000D01*
X171041000Y-101797750D01*
X171041000Y-102997000D01*
X171061000Y-102997000D01*
X171061000Y-103251000D01*
X171041000Y-103251000D01*
X171041000Y-104450250D01*
X171199750Y-104609000D01*
X171577000Y-104609000D01*
X171577000Y-106172000D01*
X167397650Y-106172000D01*
X167474730Y-105986370D01*
X167475069Y-105597337D01*
X167326507Y-105237788D01*
X167051659Y-104962460D01*
X166692370Y-104813270D01*
X166303337Y-104812931D01*
X165943788Y-104961493D01*
X165668460Y-105236341D01*
X165519270Y-105595630D01*
X165518931Y-105984663D01*
X165667493Y-106344212D01*
X165735000Y-106411837D01*
X165735000Y-106934000D01*
X165770605Y-107113000D01*
X157429653Y-107113000D01*
X157641054Y-106971747D01*
X157962961Y-106489978D01*
X158076000Y-105921693D01*
X158076000Y-105863507D01*
X157962961Y-105295222D01*
X157641054Y-104813453D01*
X157159285Y-104491546D01*
X156591000Y-104378507D01*
X156022715Y-104491546D01*
X155540946Y-104813453D01*
X155511597Y-104857377D01*
X155439327Y-104682902D01*
X155260699Y-104504273D01*
X155027310Y-104407600D01*
X154336750Y-104407600D01*
X154178000Y-104566350D01*
X154178000Y-105765600D01*
X154198000Y-105765600D01*
X154198000Y-106019600D01*
X154178000Y-106019600D01*
X154178000Y-106039600D01*
X153924000Y-106039600D01*
X153924000Y-106019600D01*
X153904000Y-106019600D01*
X153904000Y-105765600D01*
X153924000Y-105765600D01*
X153924000Y-104566350D01*
X153765250Y-104407600D01*
X153074690Y-104407600D01*
X152841301Y-104504273D01*
X152729000Y-104616575D01*
X152729000Y-103155750D01*
X152947000Y-103155750D01*
X152947000Y-103846310D01*
X153043673Y-104079699D01*
X153222302Y-104258327D01*
X153455691Y-104355000D01*
X154146250Y-104355000D01*
X154305000Y-104196250D01*
X154305000Y-102997000D01*
X154559000Y-102997000D01*
X154559000Y-104196250D01*
X154717750Y-104355000D01*
X155408309Y-104355000D01*
X155641698Y-104258327D01*
X155820327Y-104079699D01*
X155917000Y-103846310D01*
X155917000Y-103155750D01*
X155758250Y-102997000D01*
X154559000Y-102997000D01*
X154305000Y-102997000D01*
X153105750Y-102997000D01*
X152947000Y-103155750D01*
X152729000Y-103155750D01*
X152729000Y-96658000D01*
X153257250Y-96658000D01*
X153416000Y-96499250D01*
X153416000Y-95250000D01*
X153396000Y-95250000D01*
X153396000Y-94996000D01*
X153416000Y-94996000D01*
X153416000Y-94976000D01*
X153670000Y-94976000D01*
X153670000Y-94996000D01*
M02*
