G04 #@! TF.FileFunction,Legend,Top*
%FSLAX46Y46*%
G04 Gerber Fmt 4.6, Leading zero omitted, Abs format (unit mm)*
G04 Created by KiCad (PCBNEW 4.0.6) date 2017 September 13, Wednesday 11:36:20*
%MOMM*%
%LPD*%
G01*
G04 APERTURE LIST*
%ADD10C,0.100000*%
%ADD11C,0.175000*%
%ADD12C,0.120000*%
%ADD13C,0.150000*%
G04 APERTURE END LIST*
D10*
D11*
X171483333Y-107016667D02*
X172183333Y-107016667D01*
X171483333Y-107416667D02*
X171883333Y-107116667D01*
X172183333Y-107416667D02*
X171783333Y-107016667D01*
X168316667Y-100083333D02*
X167616667Y-100083333D01*
X168316667Y-99683333D02*
X167916667Y-99983333D01*
X167616667Y-99683333D02*
X168016667Y-100083333D01*
D12*
X170700000Y-101850000D02*
X167500000Y-101850000D01*
X167500000Y-100350000D02*
X170700000Y-100350000D01*
X167500000Y-100350000D02*
X167500000Y-101850000D01*
D13*
X164063000Y-101727000D02*
G75*
G03X164063000Y-101727000I-2900000J0D01*
G01*
X162663000Y-101727000D02*
G75*
G03X162663000Y-101727000I-1500000J0D01*
G01*
D12*
X170729200Y-99533600D02*
X169529200Y-99533600D01*
X169529200Y-97773600D02*
X170729200Y-97773600D01*
X168049000Y-106791000D02*
X172349000Y-106791000D01*
X172349000Y-106791000D02*
X172349000Y-104791000D01*
X172349000Y-104791000D02*
X168049000Y-104791000D01*
X157921000Y-107222600D02*
X157921000Y-104562600D01*
X155321000Y-107222600D02*
X157921000Y-107222600D01*
X155321000Y-104562600D02*
X157921000Y-104562600D01*
X155321000Y-107222600D02*
X155321000Y-104562600D01*
X154051000Y-107222600D02*
X152721000Y-107222600D01*
X152721000Y-107222600D02*
X152721000Y-105892600D01*
X155381000Y-98365000D02*
X152721000Y-98365000D01*
X155381000Y-100965000D02*
X155381000Y-98365000D01*
X152721000Y-100965000D02*
X152721000Y-98365000D01*
X155381000Y-100965000D02*
X152721000Y-100965000D01*
X155381000Y-102235000D02*
X155381000Y-103565000D01*
X155381000Y-103565000D02*
X154051000Y-103565000D01*
D13*
X167104381Y-101838095D02*
X166104381Y-101838095D01*
X166104381Y-101600000D01*
X166152000Y-101457142D01*
X166247238Y-101361904D01*
X166342476Y-101314285D01*
X166532952Y-101266666D01*
X166675810Y-101266666D01*
X166866286Y-101314285D01*
X166961524Y-101361904D01*
X167056762Y-101457142D01*
X167104381Y-101600000D01*
X167104381Y-101838095D01*
X167104381Y-100314285D02*
X167104381Y-100885714D01*
X167104381Y-100600000D02*
X166104381Y-100600000D01*
X166247238Y-100695238D01*
X166342476Y-100790476D01*
X166390095Y-100885714D01*
X160996334Y-105989381D02*
X160520143Y-105989381D01*
X160520143Y-104989381D01*
X161853477Y-105989381D02*
X161282048Y-105989381D01*
X161567762Y-105989381D02*
X161567762Y-104989381D01*
X161472524Y-105132238D01*
X161377286Y-105227476D01*
X161282048Y-105275095D01*
X167533581Y-98820266D02*
X167057390Y-99153600D01*
X167533581Y-99391695D02*
X166533581Y-99391695D01*
X166533581Y-99010742D01*
X166581200Y-98915504D01*
X166628819Y-98867885D01*
X166724057Y-98820266D01*
X166866914Y-98820266D01*
X166962152Y-98867885D01*
X167009771Y-98915504D01*
X167057390Y-99010742D01*
X167057390Y-99391695D01*
X166533581Y-97915504D02*
X166533581Y-98391695D01*
X167009771Y-98439314D01*
X166962152Y-98391695D01*
X166914533Y-98296457D01*
X166914533Y-98058361D01*
X166962152Y-97963123D01*
X167009771Y-97915504D01*
X167105010Y-97867885D01*
X167343105Y-97867885D01*
X167438343Y-97915504D01*
X167485962Y-97963123D01*
X167533581Y-98058361D01*
X167533581Y-98296457D01*
X167485962Y-98391695D01*
X167438343Y-98439314D01*
X158059667Y-97487762D02*
X158202524Y-97535381D01*
X158440620Y-97535381D01*
X158535858Y-97487762D01*
X158583477Y-97440143D01*
X158631096Y-97344905D01*
X158631096Y-97249667D01*
X158583477Y-97154429D01*
X158535858Y-97106810D01*
X158440620Y-97059190D01*
X158250143Y-97011571D01*
X158154905Y-96963952D01*
X158107286Y-96916333D01*
X158059667Y-96821095D01*
X158059667Y-96725857D01*
X158107286Y-96630619D01*
X158154905Y-96583000D01*
X158250143Y-96535381D01*
X158488239Y-96535381D01*
X158631096Y-96583000D01*
X158964429Y-96535381D02*
X159202524Y-97535381D01*
X159393001Y-96821095D01*
X159583477Y-97535381D01*
X159821572Y-96535381D01*
X160773953Y-97535381D02*
X160440619Y-97059190D01*
X160202524Y-97535381D02*
X160202524Y-96535381D01*
X160583477Y-96535381D01*
X160678715Y-96583000D01*
X160726334Y-96630619D01*
X160773953Y-96725857D01*
X160773953Y-96868714D01*
X160726334Y-96963952D01*
X160678715Y-97011571D01*
X160583477Y-97059190D01*
X160202524Y-97059190D01*
X161726334Y-97535381D02*
X161154905Y-97535381D01*
X161440619Y-97535381D02*
X161440619Y-96535381D01*
X161345381Y-96678238D01*
X161250143Y-96773476D01*
X161154905Y-96821095D01*
X163139667Y-97487762D02*
X163282524Y-97535381D01*
X163520620Y-97535381D01*
X163615858Y-97487762D01*
X163663477Y-97440143D01*
X163711096Y-97344905D01*
X163711096Y-97249667D01*
X163663477Y-97154429D01*
X163615858Y-97106810D01*
X163520620Y-97059190D01*
X163330143Y-97011571D01*
X163234905Y-96963952D01*
X163187286Y-96916333D01*
X163139667Y-96821095D01*
X163139667Y-96725857D01*
X163187286Y-96630619D01*
X163234905Y-96583000D01*
X163330143Y-96535381D01*
X163568239Y-96535381D01*
X163711096Y-96583000D01*
X164044429Y-96535381D02*
X164282524Y-97535381D01*
X164473001Y-96821095D01*
X164663477Y-97535381D01*
X164901572Y-96535381D01*
X165853953Y-97535381D02*
X165520619Y-97059190D01*
X165282524Y-97535381D02*
X165282524Y-96535381D01*
X165663477Y-96535381D01*
X165758715Y-96583000D01*
X165806334Y-96630619D01*
X165853953Y-96725857D01*
X165853953Y-96868714D01*
X165806334Y-96963952D01*
X165758715Y-97011571D01*
X165663477Y-97059190D01*
X165282524Y-97059190D01*
X166234905Y-96630619D02*
X166282524Y-96583000D01*
X166377762Y-96535381D01*
X166615858Y-96535381D01*
X166711096Y-96583000D01*
X166758715Y-96630619D01*
X166806334Y-96725857D01*
X166806334Y-96821095D01*
X166758715Y-96963952D01*
X166187286Y-97535381D01*
X166806334Y-97535381D01*
X168219667Y-97487762D02*
X168362524Y-97535381D01*
X168600620Y-97535381D01*
X168695858Y-97487762D01*
X168743477Y-97440143D01*
X168791096Y-97344905D01*
X168791096Y-97249667D01*
X168743477Y-97154429D01*
X168695858Y-97106810D01*
X168600620Y-97059190D01*
X168410143Y-97011571D01*
X168314905Y-96963952D01*
X168267286Y-96916333D01*
X168219667Y-96821095D01*
X168219667Y-96725857D01*
X168267286Y-96630619D01*
X168314905Y-96583000D01*
X168410143Y-96535381D01*
X168648239Y-96535381D01*
X168791096Y-96583000D01*
X169124429Y-96535381D02*
X169362524Y-97535381D01*
X169553001Y-96821095D01*
X169743477Y-97535381D01*
X169981572Y-96535381D01*
X170933953Y-97535381D02*
X170600619Y-97059190D01*
X170362524Y-97535381D02*
X170362524Y-96535381D01*
X170743477Y-96535381D01*
X170838715Y-96583000D01*
X170886334Y-96630619D01*
X170933953Y-96725857D01*
X170933953Y-96868714D01*
X170886334Y-96963952D01*
X170838715Y-97011571D01*
X170743477Y-97059190D01*
X170362524Y-97059190D01*
X171267286Y-96535381D02*
X171886334Y-96535381D01*
X171553000Y-96916333D01*
X171695858Y-96916333D01*
X171791096Y-96963952D01*
X171838715Y-97011571D01*
X171886334Y-97106810D01*
X171886334Y-97344905D01*
X171838715Y-97440143D01*
X171791096Y-97487762D01*
X171695858Y-97535381D01*
X171410143Y-97535381D01*
X171314905Y-97487762D01*
X171267286Y-97440143D01*
X154217762Y-97535381D02*
X153884428Y-97059190D01*
X153646333Y-97535381D02*
X153646333Y-96535381D01*
X154027286Y-96535381D01*
X154122524Y-96583000D01*
X154170143Y-96630619D01*
X154217762Y-96725857D01*
X154217762Y-96868714D01*
X154170143Y-96963952D01*
X154122524Y-97011571D01*
X154027286Y-97059190D01*
X153646333Y-97059190D01*
X154979667Y-97011571D02*
X154646333Y-97011571D01*
X154646333Y-97535381D02*
X154646333Y-96535381D01*
X155122524Y-96535381D01*
X156027286Y-97535381D02*
X155455857Y-97535381D01*
X155741571Y-97535381D02*
X155741571Y-96535381D01*
X155646333Y-96678238D01*
X155551095Y-96773476D01*
X155455857Y-96821095D01*
X166974781Y-106579895D02*
X165974781Y-106579895D01*
X165974781Y-106341800D01*
X166022400Y-106198942D01*
X166117638Y-106103704D01*
X166212876Y-106056085D01*
X166403352Y-106008466D01*
X166546210Y-106008466D01*
X166736686Y-106056085D01*
X166831924Y-106103704D01*
X166927162Y-106198942D01*
X166974781Y-106341800D01*
X166974781Y-106579895D01*
X166070019Y-105627514D02*
X166022400Y-105579895D01*
X165974781Y-105484657D01*
X165974781Y-105246561D01*
X166022400Y-105151323D01*
X166070019Y-105103704D01*
X166165257Y-105056085D01*
X166260495Y-105056085D01*
X166403352Y-105103704D01*
X166974781Y-105675133D01*
X166974781Y-105056085D01*
X159087667Y-107035457D02*
X159087667Y-106559266D01*
X159373381Y-107130695D02*
X158373381Y-106797362D01*
X159373381Y-106464028D01*
X159373381Y-106130695D02*
X158373381Y-106130695D01*
X159373381Y-105559266D01*
X158373381Y-105559266D01*
X158373381Y-105225933D02*
X158373381Y-104654504D01*
X159373381Y-104940219D02*
X158373381Y-104940219D01*
X156289429Y-99182181D02*
X155956095Y-98705990D01*
X155718000Y-99182181D02*
X155718000Y-98182181D01*
X156098953Y-98182181D01*
X156194191Y-98229800D01*
X156241810Y-98277419D01*
X156289429Y-98372657D01*
X156289429Y-98515514D01*
X156241810Y-98610752D01*
X156194191Y-98658371D01*
X156098953Y-98705990D01*
X155718000Y-98705990D01*
X156718000Y-99182181D02*
X156718000Y-98182181D01*
X157718000Y-98229800D02*
X157622762Y-98182181D01*
X157479905Y-98182181D01*
X157337047Y-98229800D01*
X157241809Y-98325038D01*
X157194190Y-98420276D01*
X157146571Y-98610752D01*
X157146571Y-98753610D01*
X157194190Y-98944086D01*
X157241809Y-99039324D01*
X157337047Y-99134562D01*
X157479905Y-99182181D01*
X157575143Y-99182181D01*
X157718000Y-99134562D01*
X157765619Y-99086943D01*
X157765619Y-98753610D01*
X157575143Y-98753610D01*
M02*
