G04 #@! TF.FileFunction,Legend,Top*
%FSLAX46Y46*%
G04 Gerber Fmt 4.6, Leading zero omitted, Abs format (unit mm)*
G04 Created by KiCad (PCBNEW 4.0.6) date 2017 October 24, Tuesday 22:14:54*
%MOMM*%
%LPD*%
G01*
G04 APERTURE LIST*
%ADD10C,0.100000*%
%ADD11C,0.175000*%
%ADD12C,0.120000*%
%ADD13C,0.150000*%
G04 APERTURE END LIST*
D10*
D11*
X171483333Y-107016667D02*
X172183333Y-107016667D01*
X171483333Y-107416667D02*
X171883333Y-107116667D01*
X172183333Y-107416667D02*
X171783333Y-107016667D01*
X168316667Y-100083333D02*
X167616667Y-100083333D01*
X168316667Y-99683333D02*
X167916667Y-99983333D01*
X167616667Y-99683333D02*
X168016667Y-100083333D01*
D12*
X170700000Y-101850000D02*
X167500000Y-101850000D01*
X167500000Y-100350000D02*
X170700000Y-100350000D01*
X167500000Y-100350000D02*
X167500000Y-101850000D01*
D13*
X164063000Y-101727000D02*
G75*
G03X164063000Y-101727000I-2900000J0D01*
G01*
X162663000Y-101727000D02*
G75*
G03X162663000Y-101727000I-1500000J0D01*
G01*
D12*
X169256000Y-99432000D02*
X168056000Y-99432000D01*
X168056000Y-97672000D02*
X169256000Y-97672000D01*
X168049000Y-106791000D02*
X172349000Y-106791000D01*
X172349000Y-106791000D02*
X172349000Y-104791000D01*
X172349000Y-104791000D02*
X168049000Y-104791000D01*
X157921000Y-107222600D02*
X157921000Y-104562600D01*
X155321000Y-107222600D02*
X157921000Y-107222600D01*
X155321000Y-104562600D02*
X157921000Y-104562600D01*
X155321000Y-107222600D02*
X155321000Y-104562600D01*
X154051000Y-107222600D02*
X152721000Y-107222600D01*
X152721000Y-107222600D02*
X152721000Y-105892600D01*
X155762000Y-99000000D02*
X153102000Y-99000000D01*
X155762000Y-101600000D02*
X155762000Y-99000000D01*
X153102000Y-101600000D02*
X153102000Y-99000000D01*
X155762000Y-101600000D02*
X153102000Y-101600000D01*
X155762000Y-102870000D02*
X155762000Y-104200000D01*
X155762000Y-104200000D02*
X154432000Y-104200000D01*
D13*
X167104381Y-101838095D02*
X166104381Y-101838095D01*
X166104381Y-101600000D01*
X166152000Y-101457142D01*
X166247238Y-101361904D01*
X166342476Y-101314285D01*
X166532952Y-101266666D01*
X166675810Y-101266666D01*
X166866286Y-101314285D01*
X166961524Y-101361904D01*
X167056762Y-101457142D01*
X167104381Y-101600000D01*
X167104381Y-101838095D01*
X167104381Y-100314285D02*
X167104381Y-100885714D01*
X167104381Y-100600000D02*
X166104381Y-100600000D01*
X166247238Y-100695238D01*
X166342476Y-100790476D01*
X166390095Y-100885714D01*
X160996334Y-105989381D02*
X160520143Y-105989381D01*
X160520143Y-104989381D01*
X161853477Y-105989381D02*
X161282048Y-105989381D01*
X161567762Y-105989381D02*
X161567762Y-104989381D01*
X161472524Y-105132238D01*
X161377286Y-105227476D01*
X161282048Y-105275095D01*
X166060381Y-98718666D02*
X165584190Y-99052000D01*
X166060381Y-99290095D02*
X165060381Y-99290095D01*
X165060381Y-98909142D01*
X165108000Y-98813904D01*
X165155619Y-98766285D01*
X165250857Y-98718666D01*
X165393714Y-98718666D01*
X165488952Y-98766285D01*
X165536571Y-98813904D01*
X165584190Y-98909142D01*
X165584190Y-99290095D01*
X165060381Y-97813904D02*
X165060381Y-98290095D01*
X165536571Y-98337714D01*
X165488952Y-98290095D01*
X165441333Y-98194857D01*
X165441333Y-97956761D01*
X165488952Y-97861523D01*
X165536571Y-97813904D01*
X165631810Y-97766285D01*
X165869905Y-97766285D01*
X165965143Y-97813904D01*
X166012762Y-97861523D01*
X166060381Y-97956761D01*
X166060381Y-98194857D01*
X166012762Y-98290095D01*
X165965143Y-98337714D01*
X158059667Y-97487762D02*
X158202524Y-97535381D01*
X158440620Y-97535381D01*
X158535858Y-97487762D01*
X158583477Y-97440143D01*
X158631096Y-97344905D01*
X158631096Y-97249667D01*
X158583477Y-97154429D01*
X158535858Y-97106810D01*
X158440620Y-97059190D01*
X158250143Y-97011571D01*
X158154905Y-96963952D01*
X158107286Y-96916333D01*
X158059667Y-96821095D01*
X158059667Y-96725857D01*
X158107286Y-96630619D01*
X158154905Y-96583000D01*
X158250143Y-96535381D01*
X158488239Y-96535381D01*
X158631096Y-96583000D01*
X158964429Y-96535381D02*
X159202524Y-97535381D01*
X159393001Y-96821095D01*
X159583477Y-97535381D01*
X159821572Y-96535381D01*
X160773953Y-97535381D02*
X160440619Y-97059190D01*
X160202524Y-97535381D02*
X160202524Y-96535381D01*
X160583477Y-96535381D01*
X160678715Y-96583000D01*
X160726334Y-96630619D01*
X160773953Y-96725857D01*
X160773953Y-96868714D01*
X160726334Y-96963952D01*
X160678715Y-97011571D01*
X160583477Y-97059190D01*
X160202524Y-97059190D01*
X161726334Y-97535381D02*
X161154905Y-97535381D01*
X161440619Y-97535381D02*
X161440619Y-96535381D01*
X161345381Y-96678238D01*
X161250143Y-96773476D01*
X161154905Y-96821095D01*
X163139667Y-97487762D02*
X163282524Y-97535381D01*
X163520620Y-97535381D01*
X163615858Y-97487762D01*
X163663477Y-97440143D01*
X163711096Y-97344905D01*
X163711096Y-97249667D01*
X163663477Y-97154429D01*
X163615858Y-97106810D01*
X163520620Y-97059190D01*
X163330143Y-97011571D01*
X163234905Y-96963952D01*
X163187286Y-96916333D01*
X163139667Y-96821095D01*
X163139667Y-96725857D01*
X163187286Y-96630619D01*
X163234905Y-96583000D01*
X163330143Y-96535381D01*
X163568239Y-96535381D01*
X163711096Y-96583000D01*
X164044429Y-96535381D02*
X164282524Y-97535381D01*
X164473001Y-96821095D01*
X164663477Y-97535381D01*
X164901572Y-96535381D01*
X165853953Y-97535381D02*
X165520619Y-97059190D01*
X165282524Y-97535381D02*
X165282524Y-96535381D01*
X165663477Y-96535381D01*
X165758715Y-96583000D01*
X165806334Y-96630619D01*
X165853953Y-96725857D01*
X165853953Y-96868714D01*
X165806334Y-96963952D01*
X165758715Y-97011571D01*
X165663477Y-97059190D01*
X165282524Y-97059190D01*
X166234905Y-96630619D02*
X166282524Y-96583000D01*
X166377762Y-96535381D01*
X166615858Y-96535381D01*
X166711096Y-96583000D01*
X166758715Y-96630619D01*
X166806334Y-96725857D01*
X166806334Y-96821095D01*
X166758715Y-96963952D01*
X166187286Y-97535381D01*
X166806334Y-97535381D01*
X168219667Y-97487762D02*
X168362524Y-97535381D01*
X168600620Y-97535381D01*
X168695858Y-97487762D01*
X168743477Y-97440143D01*
X168791096Y-97344905D01*
X168791096Y-97249667D01*
X168743477Y-97154429D01*
X168695858Y-97106810D01*
X168600620Y-97059190D01*
X168410143Y-97011571D01*
X168314905Y-96963952D01*
X168267286Y-96916333D01*
X168219667Y-96821095D01*
X168219667Y-96725857D01*
X168267286Y-96630619D01*
X168314905Y-96583000D01*
X168410143Y-96535381D01*
X168648239Y-96535381D01*
X168791096Y-96583000D01*
X169124429Y-96535381D02*
X169362524Y-97535381D01*
X169553001Y-96821095D01*
X169743477Y-97535381D01*
X169981572Y-96535381D01*
X170933953Y-97535381D02*
X170600619Y-97059190D01*
X170362524Y-97535381D02*
X170362524Y-96535381D01*
X170743477Y-96535381D01*
X170838715Y-96583000D01*
X170886334Y-96630619D01*
X170933953Y-96725857D01*
X170933953Y-96868714D01*
X170886334Y-96963952D01*
X170838715Y-97011571D01*
X170743477Y-97059190D01*
X170362524Y-97059190D01*
X171267286Y-96535381D02*
X171886334Y-96535381D01*
X171553000Y-96916333D01*
X171695858Y-96916333D01*
X171791096Y-96963952D01*
X171838715Y-97011571D01*
X171886334Y-97106810D01*
X171886334Y-97344905D01*
X171838715Y-97440143D01*
X171791096Y-97487762D01*
X171695858Y-97535381D01*
X171410143Y-97535381D01*
X171314905Y-97487762D01*
X171267286Y-97440143D01*
X154217762Y-97535381D02*
X153884428Y-97059190D01*
X153646333Y-97535381D02*
X153646333Y-96535381D01*
X154027286Y-96535381D01*
X154122524Y-96583000D01*
X154170143Y-96630619D01*
X154217762Y-96725857D01*
X154217762Y-96868714D01*
X154170143Y-96963952D01*
X154122524Y-97011571D01*
X154027286Y-97059190D01*
X153646333Y-97059190D01*
X154979667Y-97011571D02*
X154646333Y-97011571D01*
X154646333Y-97535381D02*
X154646333Y-96535381D01*
X155122524Y-96535381D01*
X156027286Y-97535381D02*
X155455857Y-97535381D01*
X155741571Y-97535381D02*
X155741571Y-96535381D01*
X155646333Y-96678238D01*
X155551095Y-96773476D01*
X155455857Y-96821095D01*
X166974781Y-106579895D02*
X165974781Y-106579895D01*
X165974781Y-106341800D01*
X166022400Y-106198942D01*
X166117638Y-106103704D01*
X166212876Y-106056085D01*
X166403352Y-106008466D01*
X166546210Y-106008466D01*
X166736686Y-106056085D01*
X166831924Y-106103704D01*
X166927162Y-106198942D01*
X166974781Y-106341800D01*
X166974781Y-106579895D01*
X166070019Y-105627514D02*
X166022400Y-105579895D01*
X165974781Y-105484657D01*
X165974781Y-105246561D01*
X166022400Y-105151323D01*
X166070019Y-105103704D01*
X166165257Y-105056085D01*
X166260495Y-105056085D01*
X166403352Y-105103704D01*
X166974781Y-105675133D01*
X166974781Y-105056085D01*
X159087667Y-107035457D02*
X159087667Y-106559266D01*
X159373381Y-107130695D02*
X158373381Y-106797362D01*
X159373381Y-106464028D01*
X159373381Y-106130695D02*
X158373381Y-106130695D01*
X159373381Y-105559266D01*
X158373381Y-105559266D01*
X158373381Y-105225933D02*
X158373381Y-104654504D01*
X159373381Y-104940219D02*
X158373381Y-104940219D01*
X156670429Y-99817181D02*
X156337095Y-99340990D01*
X156099000Y-99817181D02*
X156099000Y-98817181D01*
X156479953Y-98817181D01*
X156575191Y-98864800D01*
X156622810Y-98912419D01*
X156670429Y-99007657D01*
X156670429Y-99150514D01*
X156622810Y-99245752D01*
X156575191Y-99293371D01*
X156479953Y-99340990D01*
X156099000Y-99340990D01*
X157099000Y-99817181D02*
X157099000Y-98817181D01*
X158099000Y-98864800D02*
X158003762Y-98817181D01*
X157860905Y-98817181D01*
X157718047Y-98864800D01*
X157622809Y-98960038D01*
X157575190Y-99055276D01*
X157527571Y-99245752D01*
X157527571Y-99388610D01*
X157575190Y-99579086D01*
X157622809Y-99674324D01*
X157718047Y-99769562D01*
X157860905Y-99817181D01*
X157956143Y-99817181D01*
X158099000Y-99769562D01*
X158146619Y-99721943D01*
X158146619Y-99388610D01*
X157956143Y-99388610D01*
M02*
