G04 #@! TF.FileFunction,Copper,L1,Top,Signal*
%FSLAX46Y46*%
G04 Gerber Fmt 4.6, Leading zero omitted, Abs format (unit mm)*
G04 Created by KiCad (PCBNEW 4.0.6) date 2017 October 24, Tuesday 22:14:54*
%MOMM*%
%LPD*%
G01*
G04 APERTURE LIST*
%ADD10C,0.100000*%
%ADD11R,1.500000X1.300000*%
%ADD12C,1.524000*%
%ADD13R,1.800000X1.800000*%
%ADD14C,1.800000*%
%ADD15R,1.300000X1.700000*%
%ADD16R,1.700000X1.700000*%
%ADD17O,1.700000X1.700000*%
%ADD18C,0.685800*%
%ADD19C,1.524000*%
%ADD20C,1.016000*%
%ADD21C,0.254000*%
%ADD22C,0.508000*%
%ADD23C,0.152400*%
%ADD24C,2.000000*%
G04 APERTURE END LIST*
D10*
D11*
X168350000Y-101100000D03*
X171050000Y-101100000D03*
D12*
X157353000Y-100457000D03*
X157353000Y-102997000D03*
X164973000Y-100457000D03*
X164973000Y-102997000D03*
D11*
X167306000Y-98552000D03*
X170006000Y-98552000D03*
D13*
X158623000Y-95123000D03*
D14*
X161163000Y-95123000D03*
D13*
X163703000Y-95123000D03*
D14*
X166243000Y-95123000D03*
D13*
X168783000Y-95123000D03*
D14*
X171323000Y-95123000D03*
D13*
X153543000Y-95123000D03*
D14*
X156083000Y-95123000D03*
D15*
X171549000Y-105791000D03*
X168049000Y-105791000D03*
D16*
X154051000Y-105892600D03*
D17*
X156591000Y-105892600D03*
D16*
X154432000Y-102870000D03*
D17*
X154432000Y-100330000D03*
D18*
X161036000Y-101219000D03*
X161036000Y-99314000D03*
X166497000Y-105791000D03*
D19*
X153543000Y-95123000D02*
X153543000Y-97790000D01*
X154432000Y-102870000D02*
X154432000Y-104013000D01*
X154051000Y-104394000D02*
X154051000Y-105892600D01*
X154432000Y-104013000D02*
X154051000Y-104394000D01*
D20*
X168783000Y-95123000D02*
X168783000Y-96139000D01*
X170006000Y-97362000D02*
X170006000Y-98552000D01*
X168783000Y-96139000D02*
X170006000Y-97362000D01*
X154432000Y-102870000D02*
X154432000Y-105511600D01*
X154432000Y-105511600D02*
X154051000Y-105892600D01*
D21*
X168783000Y-95123000D02*
X168783000Y-95631000D01*
D22*
X168783000Y-95631000D02*
X170006000Y-96854000D01*
X170006000Y-96854000D02*
X170006000Y-98552000D01*
D23*
X170006000Y-98552000D02*
X169989500Y-98552000D01*
X168783000Y-95123000D02*
X168783000Y-95186500D01*
X170734400Y-98598400D02*
X169576800Y-98598400D01*
D21*
X168350000Y-101100000D02*
X168350000Y-100382000D01*
X166243000Y-96139000D02*
X166243000Y-95123000D01*
X167132000Y-97028000D02*
X166243000Y-96139000D01*
X168148000Y-97028000D02*
X167132000Y-97028000D01*
X168656000Y-97536000D02*
X168148000Y-97028000D01*
X168656000Y-100076000D02*
X168656000Y-97536000D01*
X168350000Y-100382000D02*
X168656000Y-100076000D01*
D23*
X168350000Y-101100000D02*
X168350000Y-100331200D01*
X166243000Y-95440500D02*
X166243000Y-95123000D01*
X168449000Y-100711000D02*
X168529000Y-100711000D01*
X166243000Y-95758000D02*
X166243000Y-95123000D01*
X168449000Y-100711000D02*
X168021000Y-100711000D01*
D22*
X164973000Y-100457000D02*
X164338000Y-100457000D01*
X164338000Y-100457000D02*
X163576000Y-101219000D01*
X163576000Y-101219000D02*
X161036000Y-101219000D01*
X161036000Y-99314000D02*
X161036000Y-101219000D01*
X161163000Y-99187000D02*
X161163000Y-95123000D01*
X161036000Y-99314000D02*
X161163000Y-99187000D01*
D21*
X161163000Y-95250000D02*
X161163000Y-95123000D01*
D22*
X171050000Y-102616000D02*
X167005000Y-102616000D01*
X167005000Y-102616000D02*
X167055800Y-102666800D01*
X171549000Y-105791000D02*
X171549000Y-103985000D01*
X171050000Y-103486000D02*
X171050000Y-102616000D01*
X171050000Y-102616000D02*
X171050000Y-101100000D01*
X171549000Y-103985000D02*
X171050000Y-103486000D01*
D23*
X164973000Y-100457000D02*
X164973000Y-100584000D01*
D22*
X164973000Y-100584000D02*
X167055800Y-102666800D01*
D21*
X167055800Y-102666800D02*
X169722800Y-102666800D01*
X169710100Y-102679500D02*
X169722800Y-102666800D01*
D23*
X171149000Y-100711000D02*
X171149000Y-101520000D01*
X171149000Y-101520000D02*
X170942000Y-101727000D01*
X171149000Y-105791000D02*
X171149000Y-105109000D01*
D21*
X164973000Y-102997000D02*
X164973000Y-103251000D01*
X164973000Y-103251000D02*
X163703000Y-102743000D01*
X156083000Y-96774000D02*
X156083000Y-94996000D01*
X159385000Y-97917000D02*
X156083000Y-96774000D01*
X159385000Y-100076000D02*
X159385000Y-97917000D01*
X159385000Y-101854000D02*
X159385000Y-100076000D01*
X160528000Y-102743000D02*
X159385000Y-101854000D01*
X163703000Y-102743000D02*
X160528000Y-102743000D01*
X156083000Y-94996000D02*
X156083000Y-95123000D01*
D23*
X156083000Y-95123000D02*
X156083000Y-95681800D01*
X156083000Y-96012000D02*
X156083000Y-95123000D01*
D24*
X157353000Y-105029000D02*
X156591000Y-105791000D01*
X157353000Y-102997000D02*
X157353000Y-105029000D01*
D23*
X158623000Y-95123000D02*
X158623000Y-95796100D01*
D22*
X167306000Y-98552000D02*
X165989000Y-97282000D01*
X165989000Y-97282000D02*
X164084000Y-96647000D01*
X164084000Y-96647000D02*
X163576000Y-95250000D01*
D21*
X163576000Y-95250000D02*
X163703000Y-95123000D01*
X167306000Y-98552000D02*
X167233600Y-98653600D01*
X168449000Y-105791000D02*
X166497000Y-105791000D01*
D24*
X154432000Y-100330000D02*
X156210000Y-100330000D01*
X156210000Y-100330000D02*
X157353000Y-100457000D01*
D21*
G36*
X153670000Y-94996000D02*
X153690000Y-94996000D01*
X153690000Y-95250000D01*
X153670000Y-95250000D01*
X153670000Y-96499250D01*
X153828750Y-96658000D01*
X154569309Y-96658000D01*
X154802698Y-96561327D01*
X154981327Y-96382699D01*
X155037119Y-96248006D01*
X155212357Y-96423551D01*
X155321000Y-96468664D01*
X155321000Y-96774000D01*
X155325481Y-96796527D01*
X155322347Y-96819278D01*
X155354337Y-96941594D01*
X155379004Y-97065605D01*
X155391764Y-97084701D01*
X155397575Y-97106921D01*
X155473942Y-97207690D01*
X155544185Y-97312815D01*
X155563281Y-97325575D01*
X155577153Y-97343879D01*
X155686265Y-97407750D01*
X155791395Y-97477996D01*
X155813922Y-97482477D01*
X155833742Y-97494079D01*
X158623000Y-98459592D01*
X158623000Y-99429965D01*
X158141672Y-99024791D01*
X157533556Y-98832000D01*
X156390556Y-98705000D01*
X156299568Y-98712816D01*
X156210000Y-98695000D01*
X154432000Y-98695000D01*
X153806313Y-98819457D01*
X153275880Y-99173880D01*
X152921457Y-99704313D01*
X152797000Y-100330000D01*
X152921457Y-100955687D01*
X153261938Y-101465255D01*
X153222302Y-101481673D01*
X153043673Y-101660301D01*
X152947000Y-101893690D01*
X152947000Y-102584250D01*
X153105750Y-102743000D01*
X154305000Y-102743000D01*
X154305000Y-102723000D01*
X154559000Y-102723000D01*
X154559000Y-102743000D01*
X154579000Y-102743000D01*
X154579000Y-102997000D01*
X154559000Y-102997000D01*
X154559000Y-104196250D01*
X154717750Y-104355000D01*
X155408309Y-104355000D01*
X155641698Y-104258327D01*
X155718000Y-104182025D01*
X155718000Y-104351760D01*
X155434880Y-104634880D01*
X155417426Y-104661001D01*
X155260699Y-104504273D01*
X155027310Y-104407600D01*
X154336750Y-104407600D01*
X154178000Y-104566350D01*
X154178000Y-105765600D01*
X154198000Y-105765600D01*
X154198000Y-106019600D01*
X154178000Y-106019600D01*
X154178000Y-106039600D01*
X153924000Y-106039600D01*
X153924000Y-106019600D01*
X153904000Y-106019600D01*
X153904000Y-105765600D01*
X153924000Y-105765600D01*
X153924000Y-104566350D01*
X153765250Y-104407600D01*
X153074690Y-104407600D01*
X152841301Y-104504273D01*
X152729000Y-104616575D01*
X152729000Y-103155750D01*
X152947000Y-103155750D01*
X152947000Y-103846310D01*
X153043673Y-104079699D01*
X153222302Y-104258327D01*
X153455691Y-104355000D01*
X154146250Y-104355000D01*
X154305000Y-104196250D01*
X154305000Y-102997000D01*
X153105750Y-102997000D01*
X152947000Y-103155750D01*
X152729000Y-103155750D01*
X152729000Y-96658000D01*
X153257250Y-96658000D01*
X153416000Y-96499250D01*
X153416000Y-95250000D01*
X153396000Y-95250000D01*
X153396000Y-94996000D01*
X153416000Y-94996000D01*
X153416000Y-94976000D01*
X153670000Y-94976000D01*
X153670000Y-94996000D01*
X153670000Y-94996000D01*
G37*
X153670000Y-94996000D02*
X153690000Y-94996000D01*
X153690000Y-95250000D01*
X153670000Y-95250000D01*
X153670000Y-96499250D01*
X153828750Y-96658000D01*
X154569309Y-96658000D01*
X154802698Y-96561327D01*
X154981327Y-96382699D01*
X155037119Y-96248006D01*
X155212357Y-96423551D01*
X155321000Y-96468664D01*
X155321000Y-96774000D01*
X155325481Y-96796527D01*
X155322347Y-96819278D01*
X155354337Y-96941594D01*
X155379004Y-97065605D01*
X155391764Y-97084701D01*
X155397575Y-97106921D01*
X155473942Y-97207690D01*
X155544185Y-97312815D01*
X155563281Y-97325575D01*
X155577153Y-97343879D01*
X155686265Y-97407750D01*
X155791395Y-97477996D01*
X155813922Y-97482477D01*
X155833742Y-97494079D01*
X158623000Y-98459592D01*
X158623000Y-99429965D01*
X158141672Y-99024791D01*
X157533556Y-98832000D01*
X156390556Y-98705000D01*
X156299568Y-98712816D01*
X156210000Y-98695000D01*
X154432000Y-98695000D01*
X153806313Y-98819457D01*
X153275880Y-99173880D01*
X152921457Y-99704313D01*
X152797000Y-100330000D01*
X152921457Y-100955687D01*
X153261938Y-101465255D01*
X153222302Y-101481673D01*
X153043673Y-101660301D01*
X152947000Y-101893690D01*
X152947000Y-102584250D01*
X153105750Y-102743000D01*
X154305000Y-102743000D01*
X154305000Y-102723000D01*
X154559000Y-102723000D01*
X154559000Y-102743000D01*
X154579000Y-102743000D01*
X154579000Y-102997000D01*
X154559000Y-102997000D01*
X154559000Y-104196250D01*
X154717750Y-104355000D01*
X155408309Y-104355000D01*
X155641698Y-104258327D01*
X155718000Y-104182025D01*
X155718000Y-104351760D01*
X155434880Y-104634880D01*
X155417426Y-104661001D01*
X155260699Y-104504273D01*
X155027310Y-104407600D01*
X154336750Y-104407600D01*
X154178000Y-104566350D01*
X154178000Y-105765600D01*
X154198000Y-105765600D01*
X154198000Y-106019600D01*
X154178000Y-106019600D01*
X154178000Y-106039600D01*
X153924000Y-106039600D01*
X153924000Y-106019600D01*
X153904000Y-106019600D01*
X153904000Y-105765600D01*
X153924000Y-105765600D01*
X153924000Y-104566350D01*
X153765250Y-104407600D01*
X153074690Y-104407600D01*
X152841301Y-104504273D01*
X152729000Y-104616575D01*
X152729000Y-103155750D01*
X152947000Y-103155750D01*
X152947000Y-103846310D01*
X153043673Y-104079699D01*
X153222302Y-104258327D01*
X153455691Y-104355000D01*
X154146250Y-104355000D01*
X154305000Y-104196250D01*
X154305000Y-102997000D01*
X153105750Y-102997000D01*
X152947000Y-103155750D01*
X152729000Y-103155750D01*
X152729000Y-96658000D01*
X153257250Y-96658000D01*
X153416000Y-96499250D01*
X153416000Y-95250000D01*
X153396000Y-95250000D01*
X153396000Y-94996000D01*
X153416000Y-94996000D01*
X153416000Y-94976000D01*
X153670000Y-94976000D01*
X153670000Y-94996000D01*
G36*
X170452357Y-96423551D02*
X171016330Y-96657733D01*
X171626991Y-96658265D01*
X172137000Y-96447534D01*
X172137000Y-99911722D01*
X172051890Y-99853569D01*
X171800000Y-99802560D01*
X170965454Y-99802560D01*
X171115698Y-99740327D01*
X171294327Y-99561699D01*
X171391000Y-99328310D01*
X171391000Y-98837750D01*
X171232250Y-98679000D01*
X170133000Y-98679000D01*
X170133000Y-99678250D01*
X170264071Y-99809321D01*
X170064683Y-99846838D01*
X169848559Y-99985910D01*
X169703569Y-100198110D01*
X169700919Y-100211197D01*
X169564090Y-99998559D01*
X169418000Y-99898740D01*
X169418000Y-99837000D01*
X169720250Y-99837000D01*
X169879000Y-99678250D01*
X169879000Y-98679000D01*
X169859000Y-98679000D01*
X169859000Y-98425000D01*
X169879000Y-98425000D01*
X169879000Y-97425750D01*
X170133000Y-97425750D01*
X170133000Y-98425000D01*
X171232250Y-98425000D01*
X171391000Y-98266250D01*
X171391000Y-97775690D01*
X171294327Y-97542301D01*
X171115698Y-97363673D01*
X170882309Y-97267000D01*
X170291750Y-97267000D01*
X170133000Y-97425750D01*
X169879000Y-97425750D01*
X169720250Y-97267000D01*
X169364492Y-97267000D01*
X169359996Y-97244395D01*
X169300264Y-97155000D01*
X169194815Y-96997184D01*
X168855630Y-96658000D01*
X168910002Y-96658000D01*
X168910002Y-96499252D01*
X169068750Y-96658000D01*
X169809309Y-96658000D01*
X170042698Y-96561327D01*
X170221327Y-96382699D01*
X170277119Y-96248006D01*
X170452357Y-96423551D01*
X170452357Y-96423551D01*
G37*
X170452357Y-96423551D02*
X171016330Y-96657733D01*
X171626991Y-96658265D01*
X172137000Y-96447534D01*
X172137000Y-99911722D01*
X172051890Y-99853569D01*
X171800000Y-99802560D01*
X170965454Y-99802560D01*
X171115698Y-99740327D01*
X171294327Y-99561699D01*
X171391000Y-99328310D01*
X171391000Y-98837750D01*
X171232250Y-98679000D01*
X170133000Y-98679000D01*
X170133000Y-99678250D01*
X170264071Y-99809321D01*
X170064683Y-99846838D01*
X169848559Y-99985910D01*
X169703569Y-100198110D01*
X169700919Y-100211197D01*
X169564090Y-99998559D01*
X169418000Y-99898740D01*
X169418000Y-99837000D01*
X169720250Y-99837000D01*
X169879000Y-99678250D01*
X169879000Y-98679000D01*
X169859000Y-98679000D01*
X169859000Y-98425000D01*
X169879000Y-98425000D01*
X169879000Y-97425750D01*
X170133000Y-97425750D01*
X170133000Y-98425000D01*
X171232250Y-98425000D01*
X171391000Y-98266250D01*
X171391000Y-97775690D01*
X171294327Y-97542301D01*
X171115698Y-97363673D01*
X170882309Y-97267000D01*
X170291750Y-97267000D01*
X170133000Y-97425750D01*
X169879000Y-97425750D01*
X169720250Y-97267000D01*
X169364492Y-97267000D01*
X169359996Y-97244395D01*
X169300264Y-97155000D01*
X169194815Y-96997184D01*
X168855630Y-96658000D01*
X168910002Y-96658000D01*
X168910002Y-96499252D01*
X169068750Y-96658000D01*
X169809309Y-96658000D01*
X170042698Y-96561327D01*
X170221327Y-96382699D01*
X170277119Y-96248006D01*
X170452357Y-96423551D01*
G36*
X168910000Y-94996000D02*
X168930000Y-94996000D01*
X168930000Y-95250000D01*
X168910000Y-95250000D01*
X168910000Y-95270000D01*
X168656000Y-95270000D01*
X168656000Y-95250000D01*
X168636000Y-95250000D01*
X168636000Y-94996000D01*
X168656000Y-94996000D01*
X168656000Y-94976000D01*
X168910000Y-94976000D01*
X168910000Y-94996000D01*
X168910000Y-94996000D01*
G37*
X168910000Y-94996000D02*
X168930000Y-94996000D01*
X168930000Y-95250000D01*
X168910000Y-95250000D01*
X168910000Y-95270000D01*
X168656000Y-95270000D01*
X168656000Y-95250000D01*
X168636000Y-95250000D01*
X168636000Y-94996000D01*
X168656000Y-94996000D01*
X168656000Y-94976000D01*
X168910000Y-94976000D01*
X168910000Y-94996000D01*
M02*
