G04 #@! TF.FileFunction,Legend,Bot*
%FSLAX46Y46*%
G04 Gerber Fmt 4.6, Leading zero omitted, Abs format (unit mm)*
G04 Created by KiCad (PCBNEW 4.0.6) date 2017 September 13, Wednesday 11:36:20*
%MOMM*%
%LPD*%
G01*
G04 APERTURE LIST*
%ADD10C,0.100000*%
%ADD11C,0.125000*%
%ADD12C,0.175000*%
%ADD13C,0.250000*%
%ADD14C,0.120000*%
%ADD15C,0.150000*%
G04 APERTURE END LIST*
D10*
D11*
X170364813Y-99547190D02*
X170531480Y-99309095D01*
X170650527Y-99547190D02*
X170650527Y-99047190D01*
X170460051Y-99047190D01*
X170412432Y-99071000D01*
X170388623Y-99094810D01*
X170364813Y-99142429D01*
X170364813Y-99213857D01*
X170388623Y-99261476D01*
X170412432Y-99285286D01*
X170460051Y-99309095D01*
X170650527Y-99309095D01*
X169960051Y-99523381D02*
X170007670Y-99547190D01*
X170102908Y-99547190D01*
X170150527Y-99523381D01*
X170174337Y-99475762D01*
X170174337Y-99285286D01*
X170150527Y-99237667D01*
X170102908Y-99213857D01*
X170007670Y-99213857D01*
X169960051Y-99237667D01*
X169936242Y-99285286D01*
X169936242Y-99332905D01*
X170174337Y-99380524D01*
X169769575Y-99213857D02*
X169650528Y-99547190D01*
X169531480Y-99213857D01*
X168698148Y-99547190D02*
X168983862Y-99547190D01*
X168841005Y-99547190D02*
X168841005Y-99047190D01*
X168888624Y-99118619D01*
X168936243Y-99166238D01*
X168983862Y-99190048D01*
X168483862Y-99499571D02*
X168460053Y-99523381D01*
X168483862Y-99547190D01*
X168507672Y-99523381D01*
X168483862Y-99499571D01*
X168483862Y-99547190D01*
X167983863Y-99547190D02*
X168269577Y-99547190D01*
X168126720Y-99547190D02*
X168126720Y-99047190D01*
X168174339Y-99118619D01*
X168221958Y-99166238D01*
X168269577Y-99190048D01*
X171757670Y-99969810D02*
X171733860Y-99946000D01*
X171686241Y-99922190D01*
X171567194Y-99922190D01*
X171519575Y-99946000D01*
X171495765Y-99969810D01*
X171471956Y-100017429D01*
X171471956Y-100065048D01*
X171495765Y-100136476D01*
X171781479Y-100422190D01*
X171471956Y-100422190D01*
X171162432Y-99922190D02*
X171114813Y-99922190D01*
X171067194Y-99946000D01*
X171043385Y-99969810D01*
X171019575Y-100017429D01*
X170995766Y-100112667D01*
X170995766Y-100231714D01*
X171019575Y-100326952D01*
X171043385Y-100374571D01*
X171067194Y-100398381D01*
X171114813Y-100422190D01*
X171162432Y-100422190D01*
X171210051Y-100398381D01*
X171233861Y-100374571D01*
X171257670Y-100326952D01*
X171281480Y-100231714D01*
X171281480Y-100112667D01*
X171257670Y-100017429D01*
X171233861Y-99969810D01*
X171210051Y-99946000D01*
X171162432Y-99922190D01*
X170519576Y-100422190D02*
X170805290Y-100422190D01*
X170662433Y-100422190D02*
X170662433Y-99922190D01*
X170710052Y-99993619D01*
X170757671Y-100041238D01*
X170805290Y-100065048D01*
X170352909Y-99922190D02*
X170019576Y-99922190D01*
X170233862Y-100422190D01*
X169829100Y-100231714D02*
X169448148Y-100231714D01*
X169114814Y-99922190D02*
X169067195Y-99922190D01*
X169019576Y-99946000D01*
X168995767Y-99969810D01*
X168971957Y-100017429D01*
X168948148Y-100112667D01*
X168948148Y-100231714D01*
X168971957Y-100326952D01*
X168995767Y-100374571D01*
X169019576Y-100398381D01*
X169067195Y-100422190D01*
X169114814Y-100422190D01*
X169162433Y-100398381D01*
X169186243Y-100374571D01*
X169210052Y-100326952D01*
X169233862Y-100231714D01*
X169233862Y-100112667D01*
X169210052Y-100017429D01*
X169186243Y-99969810D01*
X169162433Y-99946000D01*
X169114814Y-99922190D01*
X168710053Y-100422190D02*
X168614815Y-100422190D01*
X168567196Y-100398381D01*
X168543386Y-100374571D01*
X168495767Y-100303143D01*
X168471958Y-100207905D01*
X168471958Y-100017429D01*
X168495767Y-99969810D01*
X168519577Y-99946000D01*
X168567196Y-99922190D01*
X168662434Y-99922190D01*
X168710053Y-99946000D01*
X168733862Y-99969810D01*
X168757672Y-100017429D01*
X168757672Y-100136476D01*
X168733862Y-100184095D01*
X168710053Y-100207905D01*
X168662434Y-100231714D01*
X168567196Y-100231714D01*
X168519577Y-100207905D01*
X168495767Y-100184095D01*
X168471958Y-100136476D01*
X168257672Y-100231714D02*
X167876720Y-100231714D01*
X167376720Y-100422190D02*
X167662434Y-100422190D01*
X167519577Y-100422190D02*
X167519577Y-99922190D01*
X167567196Y-99993619D01*
X167614815Y-100041238D01*
X167662434Y-100065048D01*
X167210053Y-99922190D02*
X166900530Y-99922190D01*
X167067196Y-100112667D01*
X166995768Y-100112667D01*
X166948149Y-100136476D01*
X166924339Y-100160286D01*
X166900530Y-100207905D01*
X166900530Y-100326952D01*
X166924339Y-100374571D01*
X166948149Y-100398381D01*
X166995768Y-100422190D01*
X167138625Y-100422190D01*
X167186244Y-100398381D01*
X167210053Y-100374571D01*
D12*
X167423267Y-104566267D02*
X166723267Y-104566267D01*
X167423267Y-104966267D02*
X167023267Y-104666267D01*
X166723267Y-104966267D02*
X167123267Y-104566267D01*
D13*
X171219047Y-106252381D02*
X170647618Y-106252381D01*
X170933333Y-107252381D02*
X170933333Y-106252381D01*
X170314285Y-107252381D02*
X170314285Y-106585714D01*
X170314285Y-106252381D02*
X170361904Y-106300000D01*
X170314285Y-106347619D01*
X170266666Y-106300000D01*
X170314285Y-106252381D01*
X170314285Y-106347619D01*
X169838095Y-106585714D02*
X169838095Y-107252381D01*
X169838095Y-106680952D02*
X169790476Y-106633333D01*
X169695238Y-106585714D01*
X169552380Y-106585714D01*
X169457142Y-106633333D01*
X169409523Y-106728571D01*
X169409523Y-107252381D01*
X169028571Y-106585714D02*
X168790476Y-107252381D01*
X168552380Y-106585714D02*
X168790476Y-107252381D01*
X168885714Y-107490476D01*
X168933333Y-107538095D01*
X169028571Y-107585714D01*
X168219047Y-107204762D02*
X168076190Y-107252381D01*
X167838094Y-107252381D01*
X167742856Y-107204762D01*
X167695237Y-107157143D01*
X167647618Y-107061905D01*
X167647618Y-106966667D01*
X167695237Y-106871429D01*
X167742856Y-106823810D01*
X167838094Y-106776190D01*
X168028571Y-106728571D01*
X168123809Y-106680952D01*
X168171428Y-106633333D01*
X168219047Y-106538095D01*
X168219047Y-106442857D01*
X168171428Y-106347619D01*
X168123809Y-106300000D01*
X168028571Y-106252381D01*
X167790475Y-106252381D01*
X167647618Y-106300000D01*
X167314285Y-106252381D02*
X167076190Y-107252381D01*
X166885713Y-106538095D01*
X166695237Y-107252381D01*
X166457142Y-106252381D01*
X165504761Y-107252381D02*
X165838095Y-106776190D01*
X166076190Y-107252381D02*
X166076190Y-106252381D01*
X165695237Y-106252381D01*
X165599999Y-106300000D01*
X165552380Y-106347619D01*
X165504761Y-106442857D01*
X165504761Y-106585714D01*
X165552380Y-106680952D01*
X165599999Y-106728571D01*
X165695237Y-106776190D01*
X166076190Y-106776190D01*
X165028571Y-107204762D02*
X165028571Y-107252381D01*
X165076190Y-107347619D01*
X165123809Y-107395238D01*
X163838095Y-107252381D02*
X163838095Y-106252381D01*
X163600000Y-106252381D01*
X163457142Y-106300000D01*
X163361904Y-106395238D01*
X163314285Y-106490476D01*
X163266666Y-106680952D01*
X163266666Y-106823810D01*
X163314285Y-107014286D01*
X163361904Y-107109524D01*
X163457142Y-107204762D01*
X163600000Y-107252381D01*
X163838095Y-107252381D01*
X162838095Y-107252381D02*
X162838095Y-106252381D01*
X162266666Y-107252381D02*
X162695238Y-106680952D01*
X162266666Y-106252381D02*
X162838095Y-106823810D01*
X161933333Y-106252381D02*
X161314285Y-106252381D01*
X161647619Y-106633333D01*
X161504761Y-106633333D01*
X161409523Y-106680952D01*
X161361904Y-106728571D01*
X161314285Y-106823810D01*
X161314285Y-107061905D01*
X161361904Y-107157143D01*
X161409523Y-107204762D01*
X161504761Y-107252381D01*
X161790476Y-107252381D01*
X161885714Y-107204762D01*
X161933333Y-107157143D01*
X160885714Y-107252381D02*
X160885714Y-106252381D01*
X160552381Y-106252381D02*
X159980952Y-106252381D01*
X160266667Y-107252381D02*
X160266667Y-106252381D01*
D14*
X162600000Y-104120000D02*
X161400000Y-104120000D01*
X161400000Y-105880000D02*
X162600000Y-105880000D01*
X171269600Y-104327200D02*
X166969600Y-104327200D01*
X166969600Y-104327200D02*
X166969600Y-102327200D01*
X166969600Y-102327200D02*
X171269600Y-102327200D01*
X157089400Y-96579800D02*
X155889400Y-96579800D01*
X155889400Y-98339800D02*
X157089400Y-98339800D01*
X168011400Y-96744900D02*
X166811400Y-96744900D01*
X166811400Y-98504900D02*
X168011400Y-98504900D01*
X163750000Y-102969400D02*
X163750000Y-98249400D01*
X158830000Y-102969400D02*
X158830000Y-98249400D01*
X163750000Y-102969400D02*
X162470000Y-102969400D01*
X160110000Y-102969400D02*
X158830000Y-102969400D01*
X163750000Y-98249400D02*
X163270000Y-98249400D01*
X161610000Y-98249400D02*
X160970000Y-98249400D01*
X159310000Y-98249400D02*
X158830000Y-98249400D01*
X163370000Y-102969400D02*
X163370000Y-102969400D01*
X163370000Y-102969400D02*
X162470000Y-102969400D01*
X163370000Y-102969400D02*
X162470000Y-102969400D01*
D15*
X165366666Y-105452381D02*
X165700000Y-104976190D01*
X165938095Y-105452381D02*
X165938095Y-104452381D01*
X165557142Y-104452381D01*
X165461904Y-104500000D01*
X165414285Y-104547619D01*
X165366666Y-104642857D01*
X165366666Y-104785714D01*
X165414285Y-104880952D01*
X165461904Y-104928571D01*
X165557142Y-104976190D01*
X165938095Y-104976190D01*
X165033333Y-104452381D02*
X164414285Y-104452381D01*
X164747619Y-104833333D01*
X164604761Y-104833333D01*
X164509523Y-104880952D01*
X164461904Y-104928571D01*
X164414285Y-105023810D01*
X164414285Y-105261905D01*
X164461904Y-105357143D01*
X164509523Y-105404762D01*
X164604761Y-105452381D01*
X164890476Y-105452381D01*
X164985714Y-105404762D01*
X165033333Y-105357143D01*
X170257695Y-105557581D02*
X170257695Y-104557581D01*
X170019600Y-104557581D01*
X169876742Y-104605200D01*
X169781504Y-104700438D01*
X169733885Y-104795676D01*
X169686266Y-104986152D01*
X169686266Y-105129010D01*
X169733885Y-105319486D01*
X169781504Y-105414724D01*
X169876742Y-105509962D01*
X170019600Y-105557581D01*
X170257695Y-105557581D01*
X169352933Y-104557581D02*
X168733885Y-104557581D01*
X169067219Y-104938533D01*
X168924361Y-104938533D01*
X168829123Y-104986152D01*
X168781504Y-105033771D01*
X168733885Y-105129010D01*
X168733885Y-105367105D01*
X168781504Y-105462343D01*
X168829123Y-105509962D01*
X168924361Y-105557581D01*
X169210076Y-105557581D01*
X169305314Y-105509962D01*
X169352933Y-105462343D01*
X153893781Y-97293134D02*
X153417590Y-96959800D01*
X153893781Y-96721705D02*
X152893781Y-96721705D01*
X152893781Y-97102658D01*
X152941400Y-97197896D01*
X152989019Y-97245515D01*
X153084257Y-97293134D01*
X153227114Y-97293134D01*
X153322352Y-97245515D01*
X153369971Y-97197896D01*
X153417590Y-97102658D01*
X153417590Y-96721705D01*
X153893781Y-98245515D02*
X153893781Y-97674086D01*
X153893781Y-97959800D02*
X152893781Y-97959800D01*
X153036638Y-97864562D01*
X153131876Y-97769324D01*
X153179495Y-97674086D01*
X165069781Y-97483634D02*
X164593590Y-97150300D01*
X165069781Y-96912205D02*
X164069781Y-96912205D01*
X164069781Y-97293158D01*
X164117400Y-97388396D01*
X164165019Y-97436015D01*
X164260257Y-97483634D01*
X164403114Y-97483634D01*
X164498352Y-97436015D01*
X164545971Y-97388396D01*
X164593590Y-97293158D01*
X164593590Y-96912205D01*
X164403114Y-98340777D02*
X165069781Y-98340777D01*
X164022162Y-98102681D02*
X164736448Y-97864586D01*
X164736448Y-98483634D01*
X161466666Y-100052381D02*
X161800000Y-99576190D01*
X162038095Y-100052381D02*
X162038095Y-99052381D01*
X161657142Y-99052381D01*
X161561904Y-99100000D01*
X161514285Y-99147619D01*
X161466666Y-99242857D01*
X161466666Y-99385714D01*
X161514285Y-99480952D01*
X161561904Y-99528571D01*
X161657142Y-99576190D01*
X162038095Y-99576190D01*
X161085714Y-99147619D02*
X161038095Y-99100000D01*
X160942857Y-99052381D01*
X160704761Y-99052381D01*
X160609523Y-99100000D01*
X160561904Y-99147619D01*
X160514285Y-99242857D01*
X160514285Y-99338095D01*
X160561904Y-99480952D01*
X161133333Y-100052381D01*
X160514285Y-100052381D01*
M02*
