G04 #@! TF.FileFunction,Copper,L1,Top,Signal*
%FSLAX46Y46*%
G04 Gerber Fmt 4.6, Leading zero omitted, Abs format (unit mm)*
G04 Created by KiCad (PCBNEW 4.0.6) date 2017 September 13, Wednesday 11:36:20*
%MOMM*%
%LPD*%
G01*
G04 APERTURE LIST*
%ADD10C,0.100000*%
%ADD11R,1.500000X1.300000*%
%ADD12C,1.524000*%
%ADD13R,1.800000X1.800000*%
%ADD14C,1.800000*%
%ADD15R,1.300000X1.700000*%
%ADD16R,1.700000X1.700000*%
%ADD17O,1.700000X1.700000*%
%ADD18C,0.685800*%
%ADD19C,0.152400*%
%ADD20C,2.000000*%
%ADD21C,0.254000*%
G04 APERTURE END LIST*
D10*
D11*
X168350000Y-101100000D03*
X171050000Y-101100000D03*
D12*
X157353000Y-100457000D03*
X157353000Y-102997000D03*
X164973000Y-100457000D03*
X164973000Y-102997000D03*
D11*
X168779200Y-98653600D03*
X171479200Y-98653600D03*
D13*
X158623000Y-95123000D03*
D14*
X161163000Y-95123000D03*
D13*
X163703000Y-95123000D03*
D14*
X166243000Y-95123000D03*
D13*
X168783000Y-95123000D03*
D14*
X171323000Y-95123000D03*
D13*
X153543000Y-95123000D03*
D14*
X156083000Y-95123000D03*
D15*
X171549000Y-105791000D03*
X168049000Y-105791000D03*
D16*
X154051000Y-105892600D03*
D17*
X156591000Y-105892600D03*
D16*
X154051000Y-102235000D03*
D17*
X154051000Y-99695000D03*
D18*
X161290000Y-101092000D03*
X159880300Y-99974400D03*
X166497000Y-105791000D03*
X169672000Y-101104700D03*
D19*
X168350000Y-101100000D02*
X168350000Y-100331200D01*
X167716200Y-96913700D02*
X166243000Y-95440500D01*
X169468800Y-96913700D02*
X167716200Y-96913700D01*
X170141900Y-97586800D02*
X169468800Y-96913700D01*
X170141900Y-99364800D02*
X170141900Y-97586800D01*
X169595800Y-99910900D02*
X170141900Y-99364800D01*
X168770300Y-99910900D02*
X169595800Y-99910900D01*
X168350000Y-100331200D02*
X168770300Y-99910900D01*
X166243000Y-95440500D02*
X166243000Y-95123000D01*
X168449000Y-100711000D02*
X168529000Y-100711000D01*
X166243000Y-95758000D02*
X166243000Y-95123000D01*
X168449000Y-100711000D02*
X168021000Y-100711000D01*
X161290000Y-101092000D02*
X164338000Y-101092000D01*
X164338000Y-101092000D02*
X164973000Y-100457000D01*
X164973000Y-100457000D02*
X164973000Y-100584000D01*
X164973000Y-100584000D02*
X167055800Y-102666800D01*
X167055800Y-102666800D02*
X169722800Y-102666800D01*
X171549000Y-105791000D02*
X169773600Y-105791000D01*
X169710100Y-102679500D02*
X169722800Y-102666800D01*
X169722800Y-102666800D02*
X171050000Y-101339600D01*
X169710100Y-105727500D02*
X169710100Y-102679500D01*
X169773600Y-105791000D02*
X169710100Y-105727500D01*
X171050000Y-101339600D02*
X171050000Y-101100000D01*
X161163000Y-100965000D02*
X161163000Y-95123000D01*
X161290000Y-101092000D02*
X161163000Y-100965000D01*
X171149000Y-100711000D02*
X171149000Y-101520000D01*
X171149000Y-101520000D02*
X170942000Y-101727000D01*
X171149000Y-105791000D02*
X171149000Y-105109000D01*
X156083000Y-95123000D02*
X156083000Y-95681800D01*
X156083000Y-95681800D02*
X157721300Y-97320100D01*
X160896300Y-102997000D02*
X164973000Y-102997000D01*
X159067500Y-101168200D02*
X160896300Y-102997000D01*
X159067500Y-98971100D02*
X159067500Y-101168200D01*
X157721300Y-97624900D02*
X159067500Y-98971100D01*
X157721300Y-97320100D02*
X157721300Y-97624900D01*
X156083000Y-96012000D02*
X156083000Y-95123000D01*
D20*
X157353000Y-105029000D02*
X156591000Y-105791000D01*
X157353000Y-102997000D02*
X157353000Y-105029000D01*
D19*
X158623000Y-95123000D02*
X158623000Y-95796100D01*
X158623000Y-95796100D02*
X159880300Y-97053400D01*
X159880300Y-97053400D02*
X159880300Y-99974400D01*
X168779200Y-98653600D02*
X167233600Y-98653600D01*
X167233600Y-98653600D02*
X163703000Y-95123000D01*
X168449000Y-105791000D02*
X166497000Y-105791000D01*
X171479200Y-98653600D02*
X171462700Y-98653600D01*
X171462700Y-98653600D02*
X169672000Y-100444300D01*
X169672000Y-100444300D02*
X169672000Y-101104700D01*
X168783000Y-95123000D02*
X168783000Y-95186500D01*
X168783000Y-95186500D02*
X171005500Y-97409000D01*
X171479200Y-97514400D02*
X171479200Y-98653600D01*
X171373800Y-97409000D02*
X171479200Y-97514400D01*
X171005500Y-97409000D02*
X171373800Y-97409000D01*
X172207600Y-98700000D02*
X171050000Y-98700000D01*
D20*
X154051000Y-99695000D02*
X156591000Y-99695000D01*
X156591000Y-99695000D02*
X157353000Y-100457000D01*
D21*
G36*
X156196881Y-101613120D02*
X156367314Y-101727000D01*
X156196880Y-101840880D01*
X155842457Y-102371313D01*
X155718000Y-102997000D01*
X155718000Y-104351760D01*
X155434880Y-104634880D01*
X155417426Y-104661001D01*
X155260699Y-104504273D01*
X155027310Y-104407600D01*
X154336750Y-104407600D01*
X154178000Y-104566350D01*
X154178000Y-105765600D01*
X154198000Y-105765600D01*
X154198000Y-106019600D01*
X154178000Y-106019600D01*
X154178000Y-106039600D01*
X153924000Y-106039600D01*
X153924000Y-106019600D01*
X153904000Y-106019600D01*
X153904000Y-105765600D01*
X153924000Y-105765600D01*
X153924000Y-104566350D01*
X153765250Y-104407600D01*
X153074690Y-104407600D01*
X152841301Y-104504273D01*
X152729000Y-104616575D01*
X152729000Y-103511026D01*
X152841302Y-103623327D01*
X153074691Y-103720000D01*
X153765250Y-103720000D01*
X153924000Y-103561250D01*
X153924000Y-102362000D01*
X154178000Y-102362000D01*
X154178000Y-103561250D01*
X154336750Y-103720000D01*
X155027309Y-103720000D01*
X155260698Y-103623327D01*
X155439327Y-103444699D01*
X155536000Y-103211310D01*
X155536000Y-102520750D01*
X155377250Y-102362000D01*
X154178000Y-102362000D01*
X153924000Y-102362000D01*
X153904000Y-102362000D01*
X153904000Y-102108000D01*
X153924000Y-102108000D01*
X153924000Y-102088000D01*
X154178000Y-102088000D01*
X154178000Y-102108000D01*
X155377250Y-102108000D01*
X155536000Y-101949250D01*
X155536000Y-101330000D01*
X155913761Y-101330000D01*
X156196881Y-101613120D01*
X156196881Y-101613120D01*
G37*
X156196881Y-101613120D02*
X156367314Y-101727000D01*
X156196880Y-101840880D01*
X155842457Y-102371313D01*
X155718000Y-102997000D01*
X155718000Y-104351760D01*
X155434880Y-104634880D01*
X155417426Y-104661001D01*
X155260699Y-104504273D01*
X155027310Y-104407600D01*
X154336750Y-104407600D01*
X154178000Y-104566350D01*
X154178000Y-105765600D01*
X154198000Y-105765600D01*
X154198000Y-106019600D01*
X154178000Y-106019600D01*
X154178000Y-106039600D01*
X153924000Y-106039600D01*
X153924000Y-106019600D01*
X153904000Y-106019600D01*
X153904000Y-105765600D01*
X153924000Y-105765600D01*
X153924000Y-104566350D01*
X153765250Y-104407600D01*
X153074690Y-104407600D01*
X152841301Y-104504273D01*
X152729000Y-104616575D01*
X152729000Y-103511026D01*
X152841302Y-103623327D01*
X153074691Y-103720000D01*
X153765250Y-103720000D01*
X153924000Y-103561250D01*
X153924000Y-102362000D01*
X154178000Y-102362000D01*
X154178000Y-103561250D01*
X154336750Y-103720000D01*
X155027309Y-103720000D01*
X155260698Y-103623327D01*
X155439327Y-103444699D01*
X155536000Y-103211310D01*
X155536000Y-102520750D01*
X155377250Y-102362000D01*
X154178000Y-102362000D01*
X153924000Y-102362000D01*
X153904000Y-102362000D01*
X153904000Y-102108000D01*
X153924000Y-102108000D01*
X153924000Y-102088000D01*
X154178000Y-102088000D01*
X154178000Y-102108000D01*
X155377250Y-102108000D01*
X155536000Y-101949250D01*
X155536000Y-101330000D01*
X155913761Y-101330000D01*
X156196881Y-101613120D01*
M02*
